<?xml version="1.0" encoding="UTF-8" standalone="no"?>
<!DOCTYPE svg PUBLIC "-//W3C//DTD SVG 1.1//EN" "http://www.w3.org/Graphics/SVG/1.1/DTD/svg11.dtd">
<svg width="100%" height="100%" viewBox="0 0 751 751" version="1.1" xmlns="http://www.w3.org/2000/svg" xmlns:xlink="http://www.w3.org/1999/xlink" xml:space="preserve" xmlns:serif="http://www.serif.com/" style="fill-rule:evenodd;clip-rule:evenodd;stroke-linejoin:round;stroke-miterlimit:2;">
    <g transform="matrix(1,0,0,1,-24.6,-24.6)">
        <g transform="matrix(25,0,0,25,0,0)">
            <path d="M7.415,7.656L24.706,7.68L24.695,24.97L20.366,24.97L20.378,11.996L16.059,11.996L16.049,24.96L7.393,24.96L7.415,7.656ZM28.798,1.004L3.202,1.004C1.988,1.004 1.004,1.988 1.004,3.202L1.004,28.798C1.004,30.012 1.988,30.996 3.202,30.996L28.798,30.996C30.012,30.996 30.996,30.012 30.996,28.798L30.996,3.202C30.996,1.988 30.012,1.004 28.798,1.004Z" style="fill:rgb(203,56,55);fill-rule:nonzero;stroke:rgb(203,56,55);stroke-width:0.04px;"/>
        </g>
    </g>
</svg>
