<svg viewBox="-33.5 -4 201 201" fill="none" xmlns="http://www.w3.org/2000/svg">
<path fill-rule="evenodd" clip-rule="evenodd" d="M2.40994 73.8852C2.64636 74.1969 2.6995 73.6111 3.59486 74.1117C4.87843 74.8292 6.97536 76.566 8.02939 77.4847C9.55573 78.8153 11.689 80.6459 13.5692 82.9028C15.2507 84.921 18.7531 89.2141 18.7531 89.2141C18.7531 89.2141 21.0644 92.1618 24.1144 95.4528C28.7251 100.428 34.7253 106.399 34.6101 105.829C34.0558 103.089 35.7096 89.7821 33.1343 89.9083C31.3124 89.9976 27.7888 95.6616 27.7888 95.6616C27.7888 95.6616 29.5155 88.3479 28.1279 87.6688C26.5289 86.8864 22.1814 90.2764 22.1814 90.2764C22.1814 90.2764 23.6296 85.7421 22.4969 85.0396C21.3614 84.3351 18.4387 86.6664 18.4387 86.6664C18.4387 86.6664 19.0579 82.8616 17.7557 81.9021C16.7658 81.1726 14.4351 82.0609 14.4351 82.0609C14.4351 82.0609 15.0208 79.3791 13.9732 78.5086C13.2819 77.9339 10.5807 78.8308 10.5807 78.8308C10.5807 78.8308 10.9525 76.7156 10.3241 75.9763C9.85856 75.4285 7.95239 75.664 7.24852 76.0003C7.03931 74.9241 6.73412 73.6452 5.8643 73.2043C4.81809 72.6738 1.6891 72.9346 2.40994 73.8852Z" fill="#37A3EE"/>
<path fill-rule="evenodd" clip-rule="evenodd" d="M12.8515 75.994C13.3432 75.9677 13.7974 76.0035 14.169 76.0895L14.905 76.3522L15.4613 76.7152L15.9612 77.2248L16.3205 77.7618C16.5636 78.2004 16.7358 78.7146 16.8303 79.2635L16.8341 79.2863C17.251 79.301 17.6519 79.3625 18.0153 79.4714L19.1365 80.0248L19.7474 80.5974L20.1714 81.2077C20.4213 81.6481 20.6121 82.1782 20.7339 82.7577C21.2196 82.6227 21.6856 82.5629 22.0999 82.5776L22.8793 82.6932L23.7238 83.0581L24.416 83.6551L24.9768 84.6139C25.0972 84.9305 25.1841 85.3124 25.2273 85.7397L25.2734 85.7213C26.7908 85.1162 28.2205 85.1194 29.1506 85.5743L29.8213 86.0317L30.4377 86.8165L30.7413 87.5321C30.819 87.7822 30.8822 88.0682 30.9253 88.3848C31.6951 87.8819 32.4343 87.608 33.0184 87.5795L33.6652 87.6168L34.2966 87.7948L35.2902 88.4445C35.7547 88.8921 36.2008 89.6255 36.474 90.6521C36.9692 92.5129 37.0003 95.8701 36.921 99.0618C36.8537 101.779 36.6879 104.354 36.8928 105.366L36.939 105.932L36.838 106.533L36.5423 107.156L36.0005 107.727L35.3954 108.055L34.6363 108.197L33.8331 108.075L33.2074 107.772C32.2408 107.151 26.7184 101.693 22.4031 97.0362C19.4293 93.8273 17.142 90.9368 16.9302 90.668C16.6794 90.3607 13.3889 86.3285 11.777 84.3937C9.98644 82.2448 7.94954 80.5078 6.49611 79.2408C5.59571 78.4558 3.8712 77.0048 2.69242 76.284L2.53246 76.3115L1.7046 76.1594L1.07549 75.8169L0.551175 75.2926L0.261385 74.8285L0.0396948 74.2162L8.59186e-09 73.2257L0.210674 72.5188L0.548171 71.9688L0.98973 71.5221L1.59644 71.1331C2.20354 70.8295 3.2158 70.6084 4.23851 70.6021C5.27857 70.5957 6.30441 70.8143 6.91655 71.1245L7.86431 71.8049L8.36887 72.3956C8.50051 72.5804 8.62158 72.779 8.73159 72.9896C8.7892 73.1 8.84347 73.2145 8.89437 73.3322C9.2395 73.3165 9.57597 73.3245 9.88064 73.3633L11.1024 73.7081L11.6941 74.0757L12.0984 74.466L12.6716 75.4287C12.7419 75.6045 12.8021 75.7943 12.8515 75.994ZM2.40827 73.8843C2.6447 74.196 2.69784 73.6102 3.5932 74.1108C4.87677 74.8283 6.9736 76.5651 8.02764 77.4838C9.55397 78.8144 11.6873 80.645 13.5675 82.9019C15.249 84.9201 18.7513 89.2132 18.7513 89.2132C18.7513 89.2132 21.0626 92.1609 24.1127 95.4519C28.7234 100.427 34.7236 106.398 34.6083 105.829C34.054 103.088 35.7079 89.7811 33.1325 89.9074C31.3107 89.9967 27.787 95.6607 27.787 95.6607C27.787 95.6607 29.5138 88.3469 28.1261 87.6679C26.5271 86.8855 22.1798 90.2754 22.1798 90.2754C22.1798 90.2754 23.6279 85.7412 22.4952 85.0386C21.3597 84.3342 18.437 86.6655 18.437 86.6655C18.437 86.6655 19.0562 82.8606 17.754 81.9011C16.7641 81.1717 14.4334 82.06 14.4334 82.06C14.4334 82.06 15.0191 79.3782 13.9716 78.5076C13.2802 77.933 10.5789 78.8298 10.5789 78.8298C10.5789 78.8298 10.9507 76.7147 10.3224 75.9754C9.8568 75.4276 7.95064 75.6631 7.24676 75.9994C7.03756 74.9232 6.73236 73.6443 5.86254 73.2033C4.81634 72.6729 1.68743 72.9337 2.40827 73.8843Z" fill="black"/>
<path d="M16 105.251C13.5 88.7509 1.5 74.7509 1.5 74.7509C1.5 74.7509 0.97209 71.727 8.99998 79.7508C13.2218 83.9705 26.3208 98.9763 29 101.751C34.283 107.222 38 106.82 38 107.251C38 108.251 30 157.751 30 157.751C30 157.751 18.5 121.751 16 105.251Z" fill="#FFFCF9"/>
<path d="M1.5 74.7509L0.268624 74.9658C0.307249 75.1871 0.404769 75.3938 0.55093 75.5643L1.5 74.7509ZM16 105.251L17.2359 105.064V105.064L16 105.251ZM30 157.751L28.8093 158.131L31.234 157.95L30 157.751ZM29 101.751L28.1009 102.619V102.619L29 101.751ZM8.99998 79.7508L9.88364 78.8667V78.8667L8.99998 79.7508ZM1.5 74.7509C0.55093 75.5643 0.550785 75.5642 0.550686 75.5641C0.550714 75.5641 0.55066 75.564 0.550715 75.5641C0.550825 75.5642 0.551117 75.5646 0.551588 75.5651C0.552531 75.5662 0.554194 75.5682 0.556568 75.571C0.561314 75.5765 0.568901 75.5855 0.579245 75.5977C0.599934 75.6223 0.631653 75.66 0.673748 75.7107C0.757941 75.8121 0.883616 75.9651 1.04554 76.1669C1.36944 76.5706 1.83814 77.1693 2.40989 77.9406C3.55388 79.4838 5.10763 81.7143 6.73853 84.4529C10.0091 89.9449 13.548 97.4113 14.7641 105.438L16 105.251L17.2359 105.064C15.9521 96.5904 12.241 88.8068 8.88651 83.1738C7.2049 80.35 5.60239 78.0492 4.41825 76.4518C3.82593 75.6527 3.33759 75.0288 2.99547 74.6024C2.82439 74.3892 2.68981 74.2253 2.597 74.1135C2.5506 74.0576 2.51463 74.0148 2.48976 73.9853C2.47732 73.9706 2.46765 73.9592 2.46085 73.9512C2.45744 73.9472 2.45475 73.944 2.45279 73.9417C2.4518 73.9406 2.451 73.9396 2.45038 73.9389C2.45007 73.9385 2.44974 73.9382 2.44959 73.938C2.44931 73.9376 2.44907 73.9374 1.5 74.7509ZM16 105.251L14.7641 105.438C16.0281 113.78 19.5513 126.98 22.7364 138.034C24.3327 143.575 25.8506 148.598 26.9693 152.235C27.5287 154.055 27.9885 155.528 28.3085 156.546C28.4685 157.056 28.5935 157.452 28.6787 157.72C28.7213 157.854 28.7538 157.957 28.7758 158.026C28.7868 158.061 28.7952 158.087 28.8008 158.104C28.8036 158.113 28.8057 158.12 28.8071 158.124C28.8078 158.127 28.8084 158.128 28.8087 158.129C28.8089 158.13 28.8091 158.13 28.8092 158.131C28.8093 158.131 28.8093 158.131 30 157.751C31.1908 157.37 31.1907 157.37 31.1907 157.37C31.1906 157.37 31.1905 157.37 31.1903 157.369C31.19 157.368 31.1895 157.366 31.1888 157.364C31.1874 157.36 31.1854 157.354 31.1826 157.345C31.1772 157.328 31.169 157.302 31.1581 157.268C31.1364 157.2 31.1041 157.098 31.0619 156.965C30.9773 156.698 30.8529 156.304 30.6936 155.797C30.3749 154.783 29.9167 153.314 29.3589 151.501C28.2432 147.873 26.7298 142.865 25.1387 137.342C21.9488 126.272 18.472 113.221 17.2359 105.064L16 105.251ZM30 157.751C31.234 157.95 31.2341 157.95 31.2341 157.95C31.2342 157.949 31.2343 157.949 31.2344 157.948C31.2346 157.947 31.235 157.944 31.2355 157.941C31.2365 157.935 31.2379 157.926 31.2398 157.914C31.2437 157.891 31.2494 157.855 31.257 157.808C31.2721 157.714 31.2946 157.575 31.3239 157.394C31.3825 157.031 31.4684 156.499 31.5778 155.821C31.7966 154.466 32.1091 152.528 32.4841 150.2C33.2342 145.543 34.2342 139.324 35.2343 133.073C36.2344 126.823 37.2346 120.54 37.9849 115.757C38.36 113.366 38.673 111.347 38.8923 109.894C39.0019 109.169 39.0886 108.58 39.1481 108.157C39.1777 107.945 39.2013 107.77 39.2177 107.636C39.2292 107.543 39.25 107.376 39.25 107.251H38H36.75C36.75 107.188 36.7552 107.178 36.7364 107.331C36.7226 107.444 36.7012 107.603 36.6723 107.809C36.6146 108.22 36.5295 108.798 36.4203 109.521C36.2021 110.967 35.89 112.98 35.5151 115.37C34.7654 120.149 33.7657 126.429 32.7657 132.678C31.7658 138.928 30.7659 145.146 30.0159 149.802C29.641 152.13 29.3285 154.067 29.1098 155.423C29.0004 156.1 28.9145 156.633 28.8559 156.995C28.8266 157.177 28.8041 157.316 28.789 157.409C28.7814 157.456 28.7757 157.492 28.7718 157.516C28.7699 157.527 28.7685 157.536 28.7675 157.542C28.767 157.545 28.7667 157.548 28.7664 157.549C28.7663 157.55 28.7662 157.55 28.7661 157.551C28.7661 157.551 28.7661 157.551 30 157.751ZM38 107.251H39.25C39.25 106.697 38.9256 106.347 38.722 106.19C38.5384 106.048 38.35 105.974 38.2593 105.941C38.0697 105.872 37.8212 105.812 37.6416 105.767C37.2258 105.662 36.6614 105.517 35.9463 105.231C34.5246 104.661 32.4215 103.495 29.8992 100.883L29 101.751L28.1009 102.619C30.8615 105.478 33.2584 106.846 35.016 107.551C35.8905 107.902 36.5856 108.079 37.0318 108.191C37.1447 108.22 37.2276 108.24 37.2976 108.259C37.3312 108.268 37.3563 108.275 37.3751 108.281C37.3944 108.287 37.4017 108.29 37.4007 108.289C37.3998 108.289 37.3952 108.287 37.3875 108.284C37.38 108.281 37.3677 108.275 37.3518 108.268C37.3238 108.254 37.2637 108.222 37.192 108.167C37.0454 108.053 36.75 107.751 36.75 107.251H38ZM29 101.751L29.8992 100.883C28.5816 99.5181 24.6658 95.1056 20.5101 90.4594C16.3842 85.8465 12.0255 81.0076 9.88364 78.8667L8.99998 79.7508L8.11632 80.6349C10.1962 82.7138 14.4979 87.4875 18.6468 92.1261C22.7659 96.7314 26.7391 101.209 28.1009 102.619L29 101.751ZM8.99998 79.7508L9.88364 78.8667C7.85815 76.8423 6.34632 75.4882 5.21178 74.6002C4.10797 73.7362 3.26196 73.2324 2.58039 73.0393C2.22852 72.9395 1.79978 72.8874 1.36677 73.0295C0.888248 73.1864 0.579839 73.5218 0.416181 73.8626C0.270387 74.1661 0.246197 74.4526 0.243211 74.6134C0.241558 74.7024 0.246127 74.7788 0.251568 74.8364C0.254333 74.8657 0.257445 74.8914 0.260407 74.9129C0.261893 74.9237 0.263356 74.9335 0.264739 74.9423C0.265431 74.9468 0.266105 74.9509 0.266755 74.9548C0.267079 74.9568 0.267398 74.9587 0.26771 74.9605C0.267865 74.9614 0.268094 74.9628 0.268172 74.9632C0.268399 74.9645 0.268624 74.9658 1.5 74.7509C2.73138 74.5359 2.7316 74.5372 2.73182 74.5384C2.73189 74.5388 2.7321 74.5401 2.73224 74.5409C2.73252 74.5426 2.7328 74.5442 2.73306 74.5458C2.73359 74.549 2.73409 74.5521 2.73456 74.555C2.73549 74.561 2.73632 74.5666 2.73705 74.572C2.73851 74.5825 2.73964 74.5922 2.74049 74.6013C2.74212 74.6186 2.74319 74.6378 2.74278 74.6598C2.74228 74.6866 2.73957 74.7995 2.66972 74.9449C2.582 75.1276 2.40401 75.3203 2.14585 75.405C1.93321 75.4747 1.81479 75.4207 1.89867 75.4445C2.08861 75.4984 2.61586 75.7431 3.6709 76.5689C4.69523 77.3706 6.12786 78.6475 8.11632 80.6349L8.99998 79.7508Z" fill="black"/>
<path fill-rule="evenodd" clip-rule="evenodd" d="M80.2443 61.7002C80.2443 61.7002 73.8927 25.3552 76.3929 15.1628C80.2926 -0.735239 97.4673 -4.92604 108.587 12.7819C114.768 22.6242 115.465 40.9529 116.827 55.3572C118.51 73.1403 118.276 87.165 118.276 87.165C118.276 87.165 135.802 138.643 131.243 155.268C122.573 186.884 97.2868 190.636 79.2358 190.932C61.1847 191.228 26.0852 184.031 24.5404 143.46C23.8222 124.601 42.7887 83.7209 42.7887 83.7209C42.7887 83.7209 30.9999 64.2344 25.0553 37.4473C22.6011 26.3884 34.869 4.22075 54.7995 23.6473C61.1996 29.8855 73.5 61.7509 73.5 61.7509C73.5 61.7509 76.1734 61.4385 77.5056 61.4476C78.3629 61.4536 80.2443 61.7002 80.2443 61.7002Z" fill="#FFFCF9" stroke="black" stroke-width="2.5" stroke-miterlimit="1.5" stroke-linecap="round" stroke-linejoin="round"/>
<path fill-rule="evenodd" clip-rule="evenodd" d="M75.857 64.3684C75.857 64.3684 73.7743 59.8213 72.6477 56.7875C73.4366 56.4756 74.3096 55.4911 76.0397 55.3579C76.3943 55.3307 76.5355 56.2667 76.6369 57.1677C76.7846 58.4822 76.7395 60.1732 76.5676 61.1148C78.6251 60.1021 82.0287 58.14 83.4055 59.3701C84.2192 60.0973 81.3569 66.0488 81.3569 66.0488C81.3569 66.0488 87.3804 63.3412 88.6781 64.6502C90.1353 66.12 83.9383 73.7215 83.3745 74.0571C82.4622 74.6002 80.0364 70.6886 78.6725 69.1016C77.4449 67.673 75.857 64.3684 75.857 64.3684Z" fill="#37A3EE"/>
<path fill-rule="evenodd" clip-rule="evenodd" d="M73.739 65.338C73.739 65.338 71.6138 60.6952 70.4637 57.5978C70.0224 56.4092 70.6122 55.0857 71.7912 54.6194C72.1043 54.4956 72.4205 54.2159 72.8436 53.9763C73.6282 53.5323 74.589 53.1311 75.8619 53.0332L76.4115 53.0511L76.9395 53.1859L77.4644 53.4559L77.9891 53.9204C78.3816 54.3725 78.8098 55.6259 78.9538 56.9063C78.9718 57.0674 78.9875 57.2333 79.0006 57.4028C79.8353 57.0685 80.6634 56.8028 81.3958 56.7029C82.1629 56.5983 82.8671 56.6423 83.4751 56.8177L84.2385 57.1272L84.9591 57.6312L85.4039 58.1466L85.746 58.8812L85.8811 59.752C85.8886 60.0294 85.8661 60.3587 85.8048 60.7264C85.7337 61.1521 85.5952 61.6654 85.4194 62.2136C85.6731 62.1574 85.9227 62.1093 86.1646 62.0715C88.034 61.7788 89.5678 62.2354 90.3342 63.0083L90.9023 63.8098L91.1281 64.4332L91.2202 65.0089C91.2815 65.8187 91.0112 66.9993 90.374 68.2947C89.1982 70.685 86.7861 73.7989 85.6461 75.0765C85.1352 75.6491 84.7208 75.9675 84.5678 76.0587L83.6984 76.3893L82.872 76.421L82.1157 76.234L81.3512 75.8256C80.1105 74.9771 78.1017 72.0115 76.9057 70.6198C75.5424 69.0332 73.757 65.3768 73.757 65.3768L73.739 65.338ZM75.8578 64.3675C75.8578 64.3675 77.4457 67.6721 78.6733 69.1007C80.0373 70.6876 82.463 74.5993 83.3754 74.0562C83.9392 73.7205 90.1361 66.1191 88.679 64.6492C87.3813 63.3403 81.3578 66.0479 81.3578 66.0479C81.3578 66.0479 84.22 60.0964 83.4063 59.3692C82.0295 58.1391 78.626 60.1012 76.5684 61.1139C76.7403 60.1722 76.7855 58.4813 76.6378 57.1667C76.5364 56.2658 76.3952 55.3298 76.0406 55.357C74.3104 55.4901 73.4375 56.4746 72.6486 56.7866C73.7751 59.8204 75.8578 64.3675 75.8578 64.3675Z" fill="black"/>
<path d="M70.02 124.365C73.1997 124.143 75.4947 119.921 75.146 114.934C74.7973 109.948 71.937 106.086 68.7573 106.308C65.5776 106.53 63.2827 110.753 63.6313 115.739C63.98 120.726 66.8403 124.588 70.02 124.365Z" fill="black" stroke="black" stroke-width="2.17" stroke-miterlimit="1.5" stroke-linecap="round" stroke-linejoin="round"/>
<path fill-rule="evenodd" clip-rule="evenodd" d="M67.3583 109.126C66.0438 109.164 65.1415 110.523 65.3448 112.159C65.548 113.795 66.7803 115.092 68.0948 115.054C69.4093 115.016 70.3114 113.657 70.1082 112.021C69.905 110.385 68.6728 109.088 67.3583 109.126Z" fill="#FFFEFA" stroke="black" stroke-width="0.17" stroke-miterlimit="1.5" stroke-linecap="round" stroke-linejoin="round"/>
<path d="M107.982 121.711C111.162 121.489 113.457 117.266 113.108 112.28C112.759 107.293 109.899 103.431 106.719 103.654C103.54 103.876 101.245 108.098 101.593 113.085C101.942 118.071 104.802 121.933 107.982 121.711Z" fill="black" stroke="black" stroke-width="1.17" stroke-miterlimit="1.5" stroke-linecap="round" stroke-linejoin="round"/>
<path fill-rule="evenodd" clip-rule="evenodd" d="M79.5799 132.14C77.8611 132.986 77.2963 136.371 78.3873 138.307C79.4784 140.244 80.9718 141.797 83.3611 142.772C85.688 143.721 90.1837 143.962 92.4148 143.464C94.6459 142.966 96.5581 142.224 98.5706 140.349C99.8501 139.158 101.313 137.289 101.337 135.628C101.361 133.967 101.401 131.491 99.8044 130.662C97.7167 129.579 93.0959 132.585 89.7251 132.831C86.3544 133.078 81.3786 131.256 79.5799 132.14Z" fill="#8A2828"/>
<path fill-rule="evenodd" clip-rule="evenodd" d="M79.4023 131.779C80.172 131.4 81.4848 131.453 83.0148 131.674C85.1327 131.98 87.699 132.576 89.6957 132.43C91.6912 132.284 94.1283 131.149 96.2057 130.502C97.7312 130.027 99.0821 129.834 99.9898 130.305C100.725 130.687 101.171 131.362 101.425 132.169C101.768 133.261 101.754 134.599 101.739 135.634C101.714 137.39 100.198 139.384 98.8449 140.644C96.771 142.576 94.8018 143.344 92.5024 143.857C90.2122 144.368 85.5975 144.119 83.209 143.144C80.725 142.131 79.171 140.518 78.0367 138.505C77.3318 137.254 77.2578 135.443 77.72 133.996C78.0424 132.986 78.6271 132.16 79.4023 131.779ZM79.7577 132.502C79.1575 132.797 78.7366 133.46 78.4869 134.241C78.0905 135.482 78.1335 137.037 78.738 138.11C79.7859 139.969 81.2185 141.462 83.5132 142.399C85.7784 143.323 90.1552 143.556 92.3271 143.071C94.49 142.589 96.3453 141.872 98.296 140.055C99.5022 138.931 100.911 137.188 100.934 135.622C100.948 134.664 100.975 133.422 100.657 132.411C100.469 131.816 100.161 131.301 99.619 131.02C99.2629 130.835 98.8188 130.802 98.3158 130.849C97.7506 130.902 97.1175 131.062 96.445 131.271C94.3116 131.935 91.8037 133.083 89.7545 133.233C87.7063 133.382 85.0721 132.785 82.8997 132.471C81.5694 132.279 80.4268 132.172 79.7577 132.502Z" fill="black"/>
<path fill-rule="evenodd" clip-rule="evenodd" d="M90.7548 143.363C88.2684 143.594 82.7926 142.73 82.6996 141.883C82.5453 140.476 84.9104 138.939 86.4064 138.573C88.4304 138.078 90.0977 138.667 90.0977 138.667C90.0977 138.667 92.2914 138.024 94.2473 138.276C96.1621 138.523 98.082 139.498 97.8919 140.387C97.716 141.209 93.323 143.123 90.7548 143.363Z" fill="#FA7661"/>
<path fill-rule="evenodd" clip-rule="evenodd" d="M106.56 106.92C105.332 106.448 103.976 107.355 103.534 108.943C103.091 110.531 103.728 112.202 104.956 112.674C106.184 113.145 107.54 112.239 107.983 110.651C108.425 109.063 107.788 107.391 106.56 106.92Z" fill="#FFFEFA" stroke="black" stroke-width="0.17" stroke-miterlimit="1.5" stroke-linecap="round" stroke-linejoin="round"/>
<path fill-rule="evenodd" clip-rule="evenodd" d="M86.6881 132.783C86.6866 133.773 86.0343 136.968 88.7889 137.321C89.6088 137.427 90.8689 136.218 90.8689 136.218C90.8689 136.218 92.3839 136.885 93.1713 136.802C94.827 136.628 94.632 132.83 93.8853 132.546C93.8853 132.546 87.2477 133.016 86.6881 132.783Z" fill="#FFFBFD"/>
<path fill-rule="evenodd" clip-rule="evenodd" d="M86.6822 132.403C86.782 132.445 87.0997 132.448 87.5424 132.447C89.5222 132.446 93.7574 132.146 93.7574 132.146C93.7962 132.143 93.8351 132.149 93.8716 132.163C94.0079 132.215 94.1423 132.333 94.251 132.52C94.4333 132.834 94.5627 133.373 94.5925 133.971C94.6302 134.724 94.5118 135.568 94.1868 136.148C93.9396 136.589 93.5766 136.885 93.0905 136.937C92.4187 137.007 91.244 136.57 90.8151 136.398C90.6358 136.556 90.2916 136.843 89.9049 137.076C89.4894 137.326 89.0244 137.504 88.6459 137.455C87.1191 137.259 86.533 136.28 86.3323 135.208C86.1477 134.222 86.3102 133.155 86.3109 132.651C86.311 132.561 86.3559 132.477 86.4304 132.428C86.505 132.378 86.5994 132.369 86.6822 132.403ZM86.8344 132.96C86.799 133.5 86.7142 134.331 86.8599 135.109C87.0213 135.971 87.4863 136.765 88.7141 136.923C88.9917 136.958 89.3233 136.8 89.6279 136.616C90.1422 136.306 90.5743 135.892 90.5743 135.892C90.6527 135.816 90.7688 135.796 90.8682 135.84C90.8682 135.84 92.2924 136.481 93.0342 136.403C93.3431 136.37 93.5616 136.165 93.7186 135.885C94 135.383 94.089 134.65 94.0564 133.997C94.0349 133.566 93.9599 133.169 93.8412 132.898C93.8093 132.825 93.7748 132.763 93.7361 132.715C93.728 132.705 93.7204 132.696 93.7125 132.687C93.1099 132.729 89.3707 132.983 87.5428 132.984C87.26 132.984 87.0188 132.975 86.8344 132.96Z" fill="black"/>
</svg>
