<?xml version="1.0" encoding="UTF-8" standalone="no"?>
<!DOCTYPE svg PUBLIC "-//W3C//DTD SVG 1.1//EN" "http://www.w3.org/Graphics/SVG/1.1/DTD/svg11.dtd">
<svg width="100%" height="100%" viewBox="0 0 100 100" version="1.1" xmlns="http://www.w3.org/2000/svg" xmlns:xlink="http://www.w3.org/1999/xlink" xml:space="preserve" xmlns:serif="http://www.serif.com/" style="fill-rule:evenodd;clip-rule:evenodd;stroke-linecap:round;stroke-linejoin:round;stroke-miterlimit:1.5;">
    <g transform="matrix(1,0,0,1,-11631.3,-5707.35)">
        <g id="_180x180" serif:id="180x180" transform="matrix(0.555556,0,0,0.555556,8116.68,2565.36)">
            <g transform="matrix(0.511797,0,0,0.552749,3184.54,2530.26)">
                <rect x="6138.79" y="5654.12" width="351.702" height="325.645" style="fill:none;"/>
            </g>
            <g transform="matrix(0.458684,0,0,0.458684,5440.83,5454.2)">
                <g id="Lapinosaure" transform="matrix(-1,0,0,1,3486.55,49.8838)">
                    <g transform="matrix(1,0,0,1,-289.528,372.774)">
                        <path d="M1717.58,227.606C1710.12,231.814 1713.66,205.927 1717.1,201.91C1720.55,197.892 1734.69,206.089 1738.26,203.499C1741.83,200.909 1735.65,189.64 1738.51,186.37C1741.37,183.1 1752.28,185.917 1755.42,183.879C1758.19,182.078 1755.57,175.743 1757.35,174.144C1759.13,172.545 1767.82,171.949 1766.09,174.286C1759.46,183.196 1725.75,223.002 1717.58,227.606Z" style="fill:rgb(55,163,238);"/>
                        <path d="M1749.98,177.882C1748.3,177.898 1746.14,177.923 1744.64,177.956C1739.71,178.067 1735.55,179.564 1733.46,181.951L1732.18,183.849L1731.25,186.582C1730.85,188.648 1731.06,191.426 1731.63,194.348C1731.74,194.906 1731.86,195.579 1731.98,196.271C1730.16,195.825 1728.11,195.322 1726.58,194.954C1723.66,194.249 1720.9,193.916 1718.75,194.153L1716.81,194.526L1714.7,195.374L1712.01,197.54C1710.89,198.844 1709.52,201.533 1708.55,205.076C1706.83,211.352 1705.89,220.729 1706.96,226.005C1707.17,227.056 1707.45,227.994 1707.79,228.804L1708.85,230.811L1710.33,232.538L1712.57,234.021L1714.41,234.614L1716.3,234.777L1718.84,234.347L1720.88,233.453C1723.61,231.914 1729.01,226.97 1735.28,220.362C1748.6,206.316 1766.76,184.621 1771.47,178.292L1772.76,175.679L1772.99,173.01L1772.15,170.269L1771.28,169.007L1769.91,167.754L1767.05,166.441C1765.88,166.134 1764.25,165.966 1762.48,166.042C1758.65,166.208 1754.4,167.767 1752.86,169.153L1750.93,171.757L1750.05,174.93C1749.97,175.618 1749.97,176.789 1749.98,177.882ZM1717.58,227.606C1710.12,231.814 1713.66,205.927 1717.1,201.91C1720.55,197.892 1734.69,206.089 1738.26,203.499C1741.83,200.909 1735.65,189.64 1738.51,186.37C1741.37,183.1 1752.28,185.917 1755.42,183.879C1758.19,182.078 1755.57,175.743 1757.35,174.144C1759.13,172.545 1767.82,171.949 1766.09,174.286C1759.46,183.196 1725.75,223.002 1717.58,227.606Z"/>
                    </g>
                    <g transform="matrix(1,0,0,1,-286.525,378.179)">
                        <path d="M1699.99,239.04C1699.99,239.04 1704.33,239.462 1714.55,225.798C1725.95,210.544 1768.03,166.759 1771.93,168.671C1775.83,170.583 1746.9,208.01 1743.84,233.694C1740.6,260.986 1721.77,322.263 1721.77,322.263L1699.99,239.04Z" style="fill:white;stroke:black;stroke-width:13.53px;"/>
                    </g>
                    <g transform="matrix(1,0,0,1,-42.3341,357.162)">
                        <path d="M1378.18,165.958C1378.18,165.958 1390.82,88.683 1387.29,71.066C1383.52,52.301 1343.42,20.058 1324.14,72.673C1298.38,142.946 1304.86,218.895 1304.86,218.895C1304.86,218.895 1268.79,313.068 1277.48,344.773C1294.02,405.063 1345.68,411.834 1380.11,412.398C1414.53,412.963 1481.46,399.239 1484.41,321.872C1485.78,285.908 1449.61,207.951 1449.61,207.951C1449.61,207.951 1472.09,170.791 1483.43,119.709C1488.11,98.62 1464.71,56.347 1426.71,93.392C1414.5,105.289 1391.35,166.179 1391.35,166.179C1391.35,166.179 1398.68,167.919 1398.34,167.825C1389.42,165.411 1385.95,165.459 1383.41,165.477C1381.77,165.488 1371.81,166.71 1370.81,166.849C1370.34,166.914 1378.18,165.958 1378.18,165.958Z" style="fill:rgb(255,252,249);stroke:black;stroke-width:13.53px;"/>
                    </g>
                    <g transform="matrix(1,0,0,1,-42.3341,357.162)">
                        <path d="M1337.82,293.226C1338.32,293.217 1340.11,293.025 1342.43,291.9C1344.72,290.784 1347.27,287.805 1347.27,287.805C1347.27,287.805 1350.03,291.154 1351.43,292.03C1352.94,292.983 1356.64,294.452 1356.64,294.452" style="fill:none;stroke:black;stroke-width:4.44px;"/>
                    </g>
                    <g transform="matrix(1,0,0,1,-42.3341,357.162)">
                        <path d="M1315.1,252.267C1315.1,252.267 1305.51,264.354 1308.21,276.798C1310.11,285.534 1326.63,290.708 1331.7,273.438C1337,255.354 1329.82,250.476 1324.58,249.351C1318.46,248.035 1315.1,252.267 1315.1,252.267Z" style="stroke:black;stroke-width:3.92px;"/>
                    </g>
                    <g transform="matrix(1,0,0,1,24.3402,363.451)">
                        <path d="M1314.63,250.16C1314.63,250.16 1304.3,259.552 1307.7,276.118C1310.73,290.877 1329.47,291.06 1333.69,273.565C1339.21,250.673 1329.1,247.502 1324.26,246.83C1318.95,246.093 1314.63,250.16 1314.63,250.16Z" style="stroke:black;stroke-width:3.92px;"/>
                    </g>
                    <g transform="matrix(0.983669,0.179987,-0.351341,1.21969,71.0175,62.2119)">
                        <ellipse cx="1317.22" cy="261.242" rx="3.646" ry="3.548" style="fill:rgb(255,254,250);"/>
                    </g>
                    <g transform="matrix(1.15867,0.212009,-0.351341,1.21969,-93.4894,26.4713)">
                        <ellipse cx="1317.22" cy="261.242" rx="3.646" ry="3.548" style="fill:rgb(255,254,250);"/>
                    </g>
                </g>
                <g transform="matrix(1,0,0,1,1472.45,-18.0634)">
                    <path d="M701.3,718.935C701.3,718.935 705.016,729.072 709.766,728.688C715.906,728.191 715.964,718.277 715.964,718.277" style="fill:rgb(240,162,124);stroke:black;stroke-width:3.18px;"/>
                    <g transform="matrix(-1,0,0,1,2056.23,425.16)">
                        <path d="M1337.82,293.226C1338.32,293.217 1340.11,293.025 1342.43,291.9C1344.72,290.784 1347.27,287.805 1347.27,287.805C1347.27,287.805 1350.03,291.154 1351.43,292.03C1352.94,292.983 1356.64,294.452 1356.64,294.452" style="fill:rgb(240,162,124);stroke:black;stroke-width:2.04px;"/>
                    </g>
                </g>
                <g transform="matrix(-1,0,0,1,3735.66,-18.6674)">
                    <path d="M1577.83,621.514C1575.42,626.461 1562.15,593.282 1562.9,588.144C1563.64,583.007 1578.63,594.837 1582.31,590.688C1585.99,586.538 1582.87,562.864 1584.96,563.25C1598.06,565.668 1596.2,589.189 1596.2,589.189C1596.2,589.189 1592.38,592.597 1585.53,603.893C1581.59,610.401 1579.93,617.203 1577.83,621.514Z" style="fill:rgb(55,163,238);stroke:black;stroke-width:7.85px;"/>
                </g>
            </g>
        </g>
    </g>
</svg>
